<svg width="200" height="200" xmlns="http://www.w3.org/2000/svg" viewBox="0 0 200 200">
  <!-- Magnifying glass handle -->
  <path d="M 30 170 Q 15 170 15 155 Q 15 140 30 140 L 70 100 Q 80 90 90 100 L 60 130 Q 50 140 40 150 L 30 170 Z" fill="#00D4D4" stroke="none"/>
  
  <!-- Magnifying glass ring -->
  <circle cx="115" cy="75" r="55" fill="none" stroke="#00D4D4" stroke-width="12"/>
  
  <!-- Inner white circle -->
  <circle cx="115" cy="75" r="43" fill="white"/>
  
  <!-- Network nodes (blue circles) -->
  <circle cx="95" cy="55" r="6" fill="#6366F1"/>
  <circle cx="135" cy="45" r="6" fill="#6366F1"/>
  <circle cx="145" cy="85" r="6" fill="#6366F1"/>
  <circle cx="125" cy="105" r="6" fill="#6366F1"/>
  <circle cx="85" cy="95" r="6" fill="#6366F1"/>
  
  <!-- Network connections (blue lines) -->
  <line x1="95" y1="55" x2="135" y2="45" stroke="#6366F1" stroke-width="2"/>
  <line x1="135" y1="45" x2="145" y2="85" stroke="#6366F1" stroke-width="2"/>
  <line x1="145" y1="85" x2="125" y2="105" stroke="#6366F1" stroke-width="2"/>
  <line x1="125" y1="105" x2="85" y2="95" stroke="#6366F1" stroke-width="2"/>
  <line x1="85" y1="95" x2="95" y2="55" stroke="#6366F1" stroke-width="2"/>
  <line x1="95" y1="55" x2="145" y2="85" stroke="#6366F1" stroke-width="2"/>
  <line x1="135" y1="45" x2="85" y2="95" stroke="#6366F1" stroke-width="2"/>
</svg>