<?xml version="1.0" encoding="UTF-8"?>
<svg width="32" height="32" viewBox="0 0 32 32" fill="none" xmlns="http://www.w3.org/2000/svg">
<rect width="32" height="32" rx="4" fill="#FF9900"/>
<path d="M8 10h16c1.1 0 2 .9 2 2v8c0 1.1-.9 2-2 2H8c-1.1 0-2-.9-2-2v-8c0-1.1.9-2 2-2z" fill="white"/>
<path d="M10 14h12v1H10v-1zm0 2h12v1H10v-1zm0 2h8v1h-8v-1z" fill="#FF9900"/>
<path d="M14 24c0 1.1-.9 2-2 2s-2-.9-2-2 .9-2 2-2 2 .9 2 2z" fill="#FF9900"/>
<path d="M22 24c0 1.1-.9 2-2 2s-2-.9-2-2 .9-2 2-2 2 .9 2 2z" fill="#FF9900"/>
</svg>