<svg xmlns="http://www.w3.org/2000/svg" viewBox="0 0 200 200">
  <!-- dbt logo - orange cross with diamond center -->
  <path d="M 100 20 
           Q 120 20 135 35
           L 165 65
           Q 180 80 180 100
           Q 180 120 165 135
           L 135 165
           Q 120 180 100 180
           Q 80 180 65 165
           L 35 135
           Q 20 120 20 100
           Q 20 80 35 65
           L 65 35
           Q 80 20 100 20 Z
           
           M 80 70
           L 120 70
           L 130 100
           L 120 130
           L 80 130
           L 70 100
           Z" 
        fill="#FF694B" 
        fill-rule="evenodd"/>
  
  <!-- Center diamond -->
  <rect x="90" y="90" width="20" height="20" fill="white" transform="rotate(45 100 100)"/>
</svg>