<svg xmlns="http://www.w3.org/2000/svg" viewBox="0 0 200 200">
  <!-- Orange segments forming the circular G -->
  <!-- Outer ring top -->
  <path d="M 100 20 A 80 80 0 0 1 171.42 71.42 L 157.07 85.78 A 60 60 0 0 0 100 40 Z" fill="#FF6600"/>
  
  <!-- Outer ring right -->
  <path d="M 171.42 128.58 A 80 80 0 0 1 100 180 L 100 160 A 60 60 0 0 0 157.07 114.22 Z" fill="#FF6600"/>
  
  <!-- Outer ring bottom -->
  <path d="M 100 180 A 80 80 0 0 1 28.58 128.58 L 42.93 114.22 A 60 60 0 0 0 100 160 Z" fill="#FF6600"/>
  
  <!-- Outer ring left -->
  <path d="M 28.58 71.42 A 80 80 0 0 1 100 20 L 100 40 A 60 60 0 0 0 42.93 85.78 Z" fill="#FF6600"/>
  
  <!-- Inner G segments -->
  <!-- G top bar -->
  <path d="M 100 70 A 30 30 0 0 1 130 100 L 115 100 L 115 85 A 15 15 0 0 0 100 85 Z" fill="#FF6600"/>
  
  <!-- G bottom segment -->
  <path d="M 100 115 A 30 30 0 0 1 70 100 A 30 30 0 0 1 100 85 L 100 70 A 45 45 0 0 0 55 100 A 45 45 0 0 0 100 130 Z" fill="#FF6600"/>
  
  <!-- G middle bar -->
  <rect x="100" y="95" width="25" height="10" fill="#FF6600"/>
</svg>